<svg xmlns="http://www.w3.org/2000/svg" width="42" height="35.996" enable-background="new 0 0 42 35.996" overflow="visible" viewBox="0 0 42 35.996" id="analysis">
  <path d="M3.754,25.5 M3.754,25.5H4.5v3c0,1.234,1.016,2.25,2.246,2.25H8.25c1.23,0,2.25-1.016,2.25-2.25v-3h3.004v3
	c0,1.234,1.012,2.25,2.246,2.25h1.5c1.234,0,2.25-1.016,2.25-2.25v-3h3v3c0,1.234,1.02,2.25,2.254,2.25h1.5
	c1.234,0,2.246-1.016,2.246-2.25v-3h3v3c0,1.234,1.016,2.25,2.25,2.25h1.5c1.234,0,2.254-1.016,2.254-2.25v-3h0.746
	c1.25,0,2.246,0.996,2.246,2.25v4.5c0,1.25-0.996,2.254-2.246,2.254H3.754C2.5,34.504,1.5,33.5,1.5,32.25v-4.5
	C1.5,26.496,2.5,25.5,3.754,25.5z M3.754,24C1.691,24,0,25.688,0,27.75v4.5c0,2.063,1.691,3.746,3.754,3.746H38.25
	c2.063,0,3.75-1.683,3.75-3.746v-4.5c0-2.062-1.687-3.75-3.75-3.75h-1.5c-0.414,0-0.746,0.336-0.746,0.746V28.5
	c0,0.426-0.332,0.75-0.754,0.75h-1.5c-0.426,0-0.75-0.324-0.75-0.75v-3.754C33,24.332,32.664,24,32.25,24h-4.504
	C27.336,24,27,24.336,27,24.746V28.5c0,0.426-0.324,0.75-0.746,0.75h-1.5C24.328,29.25,24,28.926,24,28.5v-3.754
	C23.996,24.336,23.664,24,23.25,24h-4.5c-0.414,0-0.75,0.332-0.754,0.746V28.5c0,0.426-0.324,0.75-0.746,0.75h-1.5
	c-0.422,0-0.746-0.324-0.746-0.75v-3.754C15,24.332,14.664,24,14.25,24h-4.5C9.336,24,9.004,24.336,9,24.746V28.5
	c0,0.426-0.328,0.75-0.75,0.75H6.746C6.324,29.25,6,28.926,6,28.5v-3.754C6,24.332,5.66,24,5.246,24H3.754z"></path>
  <path d="M6.746 20.25H8.25C8.672 20.25 9 20.578 9 21v7.5c0 .426-.328.75-.75.75H6.746C6.324 29.25 6 28.926 6 28.5V21C6 20.578 6.324 20.25 6.746 20.25zM6.746 18.75C5.516 18.75 4.5 19.766 4.5 21v7.5c0 1.234 1.016 2.25 2.246 2.25H8.25c1.23 0 2.25-1.016 2.25-2.25V21c0-1.234-1.02-2.25-2.25-2.25H6.746zM25.461 10.504c.016 0 .023 0 .039 0 .422 0 .754.324.754.746s-.332.754-.754.754-.746-.332-.746-.754C24.754 10.84 25.059 10.523 25.461 10.504zM7.461 10.504c.016 0 .027 0 .039 0 .422 0 .75.324.75.746s-.328.754-.75.754-.754-.332-.754-.754C6.746 10.84 7.059 10.523 7.461 10.504zM34.5 1.5c.426 0 .75.324.75.746C35.25 2.672 34.926 3 34.5 3c-.422 0-.75-.328-.75-.754C33.75 1.824 34.078 1.5 34.5 1.5zM16.496 1.5c.426 0 .754.324.754.746C17.25 2.672 16.922 3 16.496 3c-.422 0-.746-.328-.746-.754C15.75 1.824 16.074 1.5 16.496 1.5zM16.441 0c-1.207.031-2.191 1.031-2.191 2.246 0 .348.078.68.223.973L8.469 9.223C8.176 9.082 7.844 9 7.5 9c-1.234 0-2.254 1.016-2.254 2.25s1.02 2.246 2.254 2.246 2.25-1.012 2.25-2.246c0-.344-.078-.672-.223-.965l6.004-6.008C15.824 4.422 16.152 4.5 16.496 4.5c.348 0 .68-.078.973-.223l6.003 6.008c-.141.293-.223.621-.223.965 0 1.234 1.016 2.246 2.25 2.246s2.246-1.012 2.246-2.246c0-.344-.078-.672-.219-.965l6.004-6.008C33.824 4.422 34.156 4.5 34.5 4.5c1.234 0 2.25-1.02 2.25-2.254S35.734 0 34.5 0c-1.23 0-2.25 1.012-2.25 2.246 0 .348.078.676.223.973l-6.008 6.004C26.172 9.082 25.844 9 25.5 9s-.672.082-.965.223l-6.008-6.004c.141-.297.223-.625.223-.973C18.75 1.012 17.73 0 16.496 0 16.477 0 16.461 0 16.441 0z"></path>
  <path d="M15.75 12.75h1.5c.422 0 .746.324.746.746V28.5c0 .426-.324.75-.746.75h-1.5c-.422 0-.746-.324-.746-.75V13.496C15.004 13.074 15.328 12.75 15.75 12.75zM15.75 11.25c-1.234 0-2.246 1.016-2.246 2.246V28.5c0 1.234 1.012 2.25 2.246 2.25h1.5c1.234 0 2.25-1.016 2.25-2.25V13.496c0-1.23-1.016-2.246-2.25-2.246H15.75zM24.754 20.25h1.5C26.676 20.25 27 20.578 27 21v7.5c0 .426-.324.75-.746.75h-1.5C24.328 29.25 24 28.926 24 28.5V21C24 20.578 24.328 20.25 24.754 20.25zM24.754 18.75c-1.234 0-2.254 1.016-2.254 2.25v7.5c0 1.234 1.02 2.25 2.254 2.25h1.5c1.234 0 2.246-1.016 2.246-2.25V21c0-1.234-1.012-2.25-2.246-2.25H24.754zM33.75 12.75h1.5c.422 0 .754.324.754.746V28.5c0 .426-.332.75-.754.75h-1.5c-.426 0-.75-.324-.75-.75V13.496C33 13.074 33.324 12.75 33.75 12.75zM33.75 11.25c-1.234 0-2.25 1.016-2.25 2.246V28.5c0 1.234 1.016 2.25 2.25 2.25h1.5c1.234 0 2.254-1.016 2.254-2.25V13.496c0-1.23-1.02-2.246-2.254-2.246H33.75z"></path>
</svg>