<svg xmlns="http://www.w3.org/2000/svg" viewBox="0 0 64 64" id="investment">
  <path d="M45.29 40a2 2 0 0 1 2 2h2a4 4 0 0 0-4-4H45v-2.43h-2V38h-.29a4 4 0 0 0 0 8H43v4h-.29a2 2 0 0 1-2-2h-2a4 4 0 0 0 4 4H43v2.43h2V52h.29a4 4 0 0 0 0-8H45v-4Zm0 6a2 2 0 0 1 0 4H45v-4ZM43 44h-.29a2 2 0 0 1 0-4H43Z"></path>
  <path d="M44 28a17 17 0 0 0-13.72 7H24v-5.45a16.81 16.81 0 0 1 5.14-3.74 10.51 10.51 0 0 0 6 1.88 10.26 10.26 0 0 0 3.05-.46A10.48 10.48 0 0 0 45 20.64a1 1 0 0 0-.35-1.12 10.38 10.38 0 0 0-15.8 4.26 18 18 0 0 0-4.8 3v-7.6a10.38 10.38 0 0 0 7.07-14.82 1 1 0 0 0-1.05-.54A10.46 10.46 0 0 0 23 8.39a11.6 11.6 0 0 0-8.91-5 1 1 0 0 0-1 .64 11.54 11.54 0 0 0 9 15.56V30a16.68 16.68 0 0 0-3.83-3.12 10.11 10.11 0 0 0-14.74-6.34A1 1 0 0 0 3 21.61a10.13 10.13 0 0 0 14.52 7.17A16.51 16.51 0 0 1 22 33.14V35H4a1 1 0 0 0-1 1v8a1 1 0 0 0 1 1h6v6H5a1 1 0 0 0-1 1v8a1 1 0 0 0 1 1h33.31A16.77 16.77 0 0 0 44 62a17 17 0 0 0 0-34Zm-8.12-8.19a8.46 8.46 0 0 1 6.9.89 8.4 8.4 0 0 1-12.1 3.74 8.47 8.47 0 0 1 5.2-4.63ZM9.5 27.09A8.2 8.2 0 0 1 5.16 22a8.13 8.13 0 0 1 11.06 5.2 8.2 8.2 0 0 1-6.72-.11ZM29.64 5.94a8.4 8.4 0 0 1-5.82 11.25 8.4 8.4 0 0 1 5.82-11.25Zm-13.83 7.41a9.6 9.6 0 0 1-1.14-7.93 9.62 9.62 0 0 1 7.22 5.05 10.48 10.48 0 0 0-.08 7 9.6 9.6 0 0 1-6-4.12ZM5 37h3v3h2v-3h6v3h2v-3h6v3h2v-3h3a16.78 16.78 0 0 0-1.88 6H22v-3h-2v3h-6v-3h-2v3H5Zm7 8h3v3h2v-3h6v3h2v-3h2a17.09 17.09 0 0 0 1.11 6H21v-3h-2v3h-7Zm11 14v-3h-2v3h-6v-3h-2v3H6v-6h3v3h2v-3h6v3h2v-3h6v3h2v-3h2a17.11 17.11 0 0 0 5.37 6Zm21 1a15 15 0 1 1 15-15 15 15 0 0 1-15 15Z"></path>
  <path d="M44 32a13 13 0 1 0 13 13 13 13 0 0 0-13-13Zm0 24a11 11 0 1 1 11-11 11 11 0 0 1-11 11Z"></path>
</svg>