<svg xmlns="http://www.w3.org/2000/svg" enable-background="new 0 0 51 51" viewBox="0 0 51 51" id="investment">
  <path fill="#010101" d="M7.66857,27.56984c-0.05914-0.86798-0.77527-1.55811-1.65662-1.55811H2.17504
		c-0.9209,0-1.6709,0.74951-1.6709,1.6709v14.04688c0,0.9209,0.75,1.67041,1.6709,1.67041h3.83691
		c0.67847,0,1.26111-0.40918,1.52142-0.99268l13.03229,6.64307c3.34245,1.70821,7.38183,1.97083,11.06836,0.43311
		c5.00097-2.08008,13.875-5.90576,17.125-8.16064c1.79492-1.24023,2.27734-3.73145,1.07617-5.55371
		c-0.00195-0.00244-0.00391-0.00488-0.00488-0.00732c-0.00586-0.00928-0.0127-0.01904-0.01855-0.02832
		c-0.93457-1.39502-2.86816-2.00928-4.56445-1.45313c-0.85834,0.28351-2.65662,0.87451-4.61469,1.49976
		c3.43719-2.62866,5.55804-6.74219,5.55804-11.26001c0-4.18463-1.83038-8.0993-4.96753-10.77777
		c0.0921-0.07611,0.18835-0.14691,0.27222-0.23297c0.64844-0.66211,1.00488-1.52881,1.00488-2.43945
		c0-1.90234-1.54688-3.4502-3.44922-3.4502h-0.06134l1.13556-3.24219c0.20996-0.60254,0.12207-1.23926-0.23828-1.74609
		c-0.37109-0.52051-0.9707-0.83154-1.60645-0.83154c-0.54883,0-1.05957,0.22949-1.34277,0.66064l-0.16504-0.37695
		c-0.40234-0.96094-1.33496-1.58154-2.375-1.58154c-0.82031,0-1.58301,0.38818-2.06836,1.0459
		c-0.03418,0.03809-0.06543,0.07861-0.09375,0.12207c-0.14941,0.22607-0.36816,0.25977-0.48535,0.25977
		c-0.19629,0-0.37695-0.09717-0.4834-0.25928c-0.47949-0.729-1.28613-1.16406-2.15625-1.16406
		c-1.04004,0-1.9707,0.61914-2.3584,1.54492l-0.08691,0.40088c-0.81934-0.91211-2.36426-0.79346-3.05273,0.18066
		c-0.36133,0.5083-0.44727,1.14551-0.23535,1.74756l1.14728,3.27759c-1.85274,0.20724-3.06427,1.74042-3.06427,3.41187
		c0,1.08258,0.49683,2.04584,1.27063,2.68036c-3.12671,2.67981-4.95032,6.59106-4.95032,10.76984
		c0,1.03229,0.12,2.05011,0.33795,3.04541C17.04996,27.5659,21.98915,27.56382,7.66857,27.56984z M5.67992,41.39992H2.50414
		V28.01173h3.17578V41.39992z M45.8723,36.18019c0.85254-0.2793,1.83398,0.00342,2.27734,0.6665
		c0.00098,0.00049,0.00098,0.00098,0.00098,0.00098c0.00488,0.00781,0.00977,0.01514,0.01465,0.02295
		c0.60742,0.9209,0.36426,2.18018-0.54492,2.80762c-3.09863,2.15039-11.82715,5.90918-16.75488,7.95898
		c-2.99805,1.25-6.49121,1.11328-9.39063-0.36865L7.6809,40.23732V29.56984h10.45996c4.43193,0,3.99584,4.64258,9.49121,4.64258
		h5.6524c0.92928,0.01075,1.79406,0.64849,1.9668,1.55243c0.1824,1.14588-0.72037,2.13116-1.81256,2.13116H20.34594
		c-0.55273,0-1,0.44775-1,1s0.44727,1,1,1h13.09277C34.65399,39.89601,44.62779,36.59137,45.8723,36.18019z M26.61059,4.44972
		c0.7998,0,1.50586-0.47949,1.77832-1.17139l0.19336-0.42188c0.13672-0.3252,0.43848-0.3501,0.52832-0.3501
		c0.11621,0,0.33398,0.03418,0.48535,0.26318c0.47754,0.72656,1.2832,1.16016,2.1543,1.16016
		c0.82031,0,1.58203-0.38379,2.06738-1.03418c0.03711-0.04053,0.07031-0.0835,0.10059-0.12988
		c0.14941-0.22949,0.36426-0.26367,0.47949-0.26367c0.08984,0,0.39355,0.02588,0.53613,0.36719l0.16504,0.37891
		C35.40355,3.97072,36.1057,4.438,36.88695,4.438c0.47168,0,0.92285-0.17383,1.26465-0.47607l-1.28027,3.65771H26.63012
		l-1.28027-3.65723C25.70141,4.27443,26.14867,4.44972,26.61059,4.44972z M23.89574,10.03859
		c0.59808-0.61021,1.3397-0.361,2.02441-0.41895c3.56794,0,10.06484,0,13.13086,0c0.79883,0,1.44922,0.65039,1.44922,1.4502
		c0,0.69758-0.50912,1.38319-1.35742,1.4585L24.92016,12.5298l-0.13379-0.00537c-0.75586-0.07227-1.32617-0.69775-1.32617-1.45459
		C23.4602,10.6797,23.60961,10.31935,23.89574,10.03859z M24.98461,14.5298h13.99316
		c3.27051,2.28271,5.21289,5.99414,5.21289,9.99023c0,4.76074-2.73438,9.00732-6.94531,11.00586
		c-0.27216-1.81747-1.83384-3.31348-3.80664-3.31348h-0.15424c-0.00793-0.00006-0.01556-0.00244-0.0235-0.00244h-5.63086
		c-1.16347,0-2.25112-0.40846-3.11304-1.09033c-0.01495-0.01202-0.03125-0.02191-0.04614-0.03412
		c-0.92854-0.75303-1.65455-2.43551-4.22168-3.20514c-0.31152-1.08643-0.46875-2.21387-0.46875-3.36035
		C19.78051,20.52541,21.71996,16.81447,24.98461,14.5298z"></path>
  <path fill="#010101" d="M31.98363,32.02101c4.68652,0,8.49902-3.81299,8.49902-8.5s-3.8125-8.5-8.49902-8.5s-8.5,3.81299-8.5,8.5
		S27.29711,32.02101,31.98363,32.02101z M31.98363,17.02101c3.58398,0,6.49902,2.91602,6.49902,6.5s-2.91504,6.5-6.49902,6.5
		s-6.5-2.91602-6.5-6.5S28.39965,17.02101,31.98363,17.02101z"></path>
  <path fill="#010101" d="M30.05492,25.66896c-0.15152-0.06692-0.34506-0.05345-0.4707,0.07715
		c-0.19681,0.20588-0.12642,0.53947,0.16016,0.65918c0.63965,0.27783,1.33105,0.43262,2.07422,0.46484v0.75586
		c0,0.13618,0.08906,0.21338,0.21289,0.21338c0.12532,0,0.22266-0.07874,0.22266-0.21338v-0.75586
		c1.21558-0.06854,2.27734-0.72227,2.27734-1.88916c0-1.29577-1.03323-1.66774-2.27734-1.95752V20.7173
		c0.49707,0.00635,0.98242,0.09375,1.45313,0.26172c0.31462,0.12444,0.54297-0.10595,0.54297-0.35889
		c0-0.19336-0.09082-0.32275-0.27148-0.38721c-0.5293-0.19385-1.10449-0.30029-1.72461-0.31982v-0.74609
		c0-0.13039-0.09238-0.22314-0.22266-0.22314c-0.13205,0-0.21289,0.09491-0.21289,0.22314v0.75586
		c-1.51381,0.08072-2.27734,0.95908-2.27734,1.97656c0,1.24359,1.09636,1.62136,2.27734,1.92822v2.21924
		C31.16527,26.02736,30.57836,25.90138,30.05492,25.66896z M32.25414,23.9341c0.61506,0.16281,1.40527,0.37576,1.40527,0.98877
		c0,0.67822-0.46875,1.0498-1.40527,1.11426V23.9341z M30.41332,21.83156c0-0.70657,0.7006-1.02999,1.40527-1.09473v2.18018
		C31.14536,22.74655,30.41332,22.52664,30.41332,21.83156z"></path>
</svg>