<svg xmlns="http://www.w3.org/2000/svg" enable-background="new 0 0 512 512" viewBox="0 0 512 512" id="bar-chart">
  <path fill="#2D56A1" d="M501,256c0,47.526-14.39,94.304-40.9,133.729c-27.84,41.402-68.246,73.999-114.419,92.828
					c-48.398,19.736-102.549,23.67-153.11,10.152c-44.617-11.928-85.433-36.742-116.732-70.684
					C26.835,368.884,4.699,295.729,14.433,224.259C23.856,155.07,62.271,90.934,120.474,51.923
					c60.471-40.531,137.03-50.934,206.297-28.941c66.406,21.084,123.236,69.972,152.474,133.395C493.613,187.544,501,221.69,501,256
					z"></path>
  <path fill="#3870C1" d="M456,256c0,81.502-48.751,151.624-118.694,182.776C312.465,449.853,284.955,456,256,456
					c-30.416,0-59.249-6.792-85.061-18.939C103.012,405.094,56,336.041,56,256c0-110.457,89.543-200,200-200S456,145.543,456,256z"></path>
  <path fill="#EE5351" d="M133.11,334.77v133.21c-21.491-12.447-41.07-28.249-57.836-46.566
					c-3.499-3.822-6.876-7.756-10.124-11.794c-0.02-0.02-0.03-0.04-0.05-0.06v-74.79c0-11.699,9.399-22.04,21.3-22.04h25.41
					C123.731,312.73,133.11,323.084,133.11,334.77z"></path>
  <path fill="#D34646" d="M133.11,334.77v133.21c-4.8-2.78-9.49-5.73-14.07-8.83c-0.48-0.33-0.97-0.65-1.45-0.99v-144.6
					C126.54,316.16,133.11,324.67,133.11,334.77z"></path>
  <path fill="#40B4E7" d="M241.9,208.12V500.6c-23.135-1.329-46.064-5.898-67.9-13.67c-0.04-0.01-0.07-0.03-0.11-0.04V208.12
					c0-12.17,9.54-22.04,21.3-22.04h25.42C232.533,186.08,241.9,196.433,241.9,208.12z"></path>
  <path fill="#36A5CC" d="M241.9,208.12V500.6c-4.7-0.27-9.38-0.67-14.01-1.2c-0.5-0.06-1.01-0.12-1.51-0.18V186.9
					C235.34,189.51,241.9,198.02,241.9,208.12z"></path>
  <g>
    <path fill="#FEC110" d="M348.47,289.06V481.4c-21.56,9.1-44.46,15.2-68.01,17.85V289.06c0-12.17,9.55-22.04,21.31-22.04h25.4
					C339.09,267.02,348.47,277.37,348.47,289.06z"></path>
    <path fill="#DDA414" d="M348.47,289.06V481.4c-5.1,2.15-10.28,4.14-15.52,5.95v-219.5C341.9,270.45,348.47,278.96,348.47,289.06
					z"></path>
  </g>
  <g>
    <path fill="#48B04F" d="M461.81,138.87v248.28c-4.8,7.34-9.99,14.4-15.52,21.16c-15.13,18.5-32.87,34.75-52.49,48.25V138.87
					c0-11.69,9.39-22.03,21.3-22.03h25.41c2.01,0,3.95,0.3,5.78,0.84c7.76,2.32,13.64,9.14,15.15,17.17
					c0.05,0.26,0.09,0.52,0.13,0.78c0.05,0.35,0.1,0.71,0.13,1.07c0.04,0.36,0.06,0.72,0.08,1.08
					C461.8,138.14,461.81,138.5,461.81,138.87z"></path>
    <path fill="#3E9340" d="M461.81,138.87v248.28c-4.8,7.34-9.99,14.4-15.52,21.16V117.67c7.97,2.32,14.06,9.32,15.28,17.96
					c0.05,0.35,0.1,0.71,0.13,1.07c0.04,0.36,0.06,0.72,0.08,1.08C461.8,138.14,461.81,138.5,461.81,138.87z"></path>
  </g>
  <g>
    <path fill="#FFD064" d="M118.5,210.4c0,13.81-11.2,25-25,25c-3.54,0-6.9-0.73-9.94-2.06c-4.72-2.04-8.67-5.49-11.34-9.82
					c-2.36-3.82-3.72-8.31-3.72-13.12c0-13.81,11.19-25,25-25c4.62,0,8.95,1.26,12.66,3.45c4.39,2.58,7.92,6.46,10.06,11.12
					C117.69,203.14,118.5,206.68,118.5,210.4z"></path>
    <circle cx="205.395" cy="113.6" r="25" fill="#FFD064"></circle>
    <circle cx="309.395" cy="175.6" r="25" fill="#FFD064"></circle>
    <path fill="#FFD064" d="M443.5,47.5c0,13.81-11.2,25-25,25c-2.29,0-4.51-0.31-6.61-0.89c-5.07-1.38-9.5-4.32-12.73-8.27
					c-3.54-4.31-5.66-9.83-5.66-15.84c0-13.81,11.19-25,25-25c4.96,0,9.59,1.45,13.47,3.95c4.33,2.77,7.75,6.84,9.7,11.66
					C442.85,41.01,443.5,44.18,443.5,47.5z"></path>
    <path fill="#FFD064" d="M441.67,38.11l-29.78,33.5l-81.04,91.15l-20.12,22.63l-25.44-16.41l-60.81-39.23l-17.86-11.53
					l-16.64,15.05l-73.76,66.7l-17.35,15.69l-15.31,17.68c-4.72-2.04-8.67-5.49-11.34-9.82l15.91-18.38l0.34-0.3l17.69-15.99
					l75.28-68.09l23.64-21.38l25.23,16.28l63.12,40.71l14.63,9.44l11.57-13.02l79.53-89.45l32.81-36.89
					C436.3,29.22,439.72,33.29,441.67,38.11z"></path>
  </g>
</svg>